<svg width="145" height="49" viewBox="0 0 145 49" fill="none" xmlns="http://www.w3.org/2000/svg">
<g clip-path="url(#clip0)">
<path d="M132.714 0.689609H11.9939C11.5538 0.689609 11.1191 0.689609 10.6802 0.692009C10.3128 0.694409 9.94835 0.701381 9.57745 0.707249C8.77166 0.716731 7.96777 0.787621 7.17277 0.919301C6.37888 1.05385 5.60985 1.30751 4.89171 1.6717C4.17445 2.03898 3.51906 2.51621 2.94933 3.08609C2.37661 3.65437 1.8992 4.31123 1.53547 5.0314C1.17073 5.75014 0.917815 6.52034 0.785466 7.31538C0.651859 8.10943 0.579964 8.91263 0.570426 9.71778C0.55929 10.0857 0.558114 10.4548 0.552246 10.8228V38.5599C0.558114 38.9325 0.55929 39.2935 0.570426 39.6662C0.579967 40.4713 0.651862 41.2745 0.785466 42.0685C0.917449 42.864 1.17038 43.6346 1.53547 44.3536C1.89904 45.0715 2.37651 45.7257 2.94933 46.2908C3.5169 46.8632 4.17271 47.3408 4.89171 47.7052C5.60985 48.0704 6.37879 48.3256 7.17277 48.4622C7.96791 48.5928 8.77172 48.6637 9.57745 48.6744C9.94835 48.6825 10.3128 48.6872 10.6802 48.6872C11.1191 48.6896 11.5538 48.6896 11.9939 48.6896H132.714C133.145 48.6896 133.583 48.6896 134.015 48.6872C134.38 48.6872 134.755 48.6825 135.121 48.6744C135.925 48.6643 136.728 48.5934 137.521 48.4622C138.318 48.3246 139.089 48.0695 139.811 47.7052C140.529 47.3406 141.184 46.863 141.752 46.2908C142.323 45.7235 142.801 45.0698 143.169 44.3536C143.532 43.6341 143.782 42.8635 143.912 42.0685C144.046 41.2744 144.121 40.4714 144.135 39.6662C144.14 39.2935 144.14 38.9325 144.14 38.5599C144.149 38.124 144.149 37.6904 144.149 37.2474V12.133C144.149 11.6935 144.149 11.2576 144.14 10.8228C144.14 10.4548 144.14 10.0857 144.135 9.71774C144.121 8.91252 144.046 8.10949 143.912 7.31534C143.782 6.52075 143.531 5.75061 143.169 5.03135C142.429 3.58784 141.254 2.41284 139.811 1.67159C139.089 1.30829 138.318 1.0547 137.521 0.919193C136.728 0.786932 135.925 0.716018 135.121 0.707081C134.755 0.701225 134.38 0.694193 134.015 0.691853C133.583 0.689453 133.145 0.689453 132.714 0.689453V0.689609Z" fill="black"/>
<path d="M10.686 47.6393C10.3204 47.6393 9.96364 47.6346 9.60089 47.6264C8.84943 47.6166 8.09972 47.5512 7.35792 47.4307C6.66623 47.3116 5.99617 47.09 5.36983 46.7732C4.74924 46.4591 4.18322 46.0472 3.69343 45.5533C3.19656 45.0652 2.78289 44.4991 2.46882 43.8775C2.15129 43.2518 1.93154 42.5811 1.81722 41.8889C1.69377 41.145 1.62698 40.3928 1.61742 39.6389C1.60981 39.3858 1.59985 38.5431 1.59985 38.5431V10.8225C1.59985 10.8225 1.61046 9.99277 1.61748 9.74902C1.62663 8.99624 1.69304 8.24524 1.81612 7.50253C1.93064 6.80836 2.15057 6.13576 2.46827 5.50801C2.78119 4.88679 3.19256 4.32029 3.68644 3.83047C4.17976 3.336 4.7476 2.92198 5.36925 2.60351C5.99414 2.28777 6.66294 2.06774 7.35323 1.95078C8.09747 1.82906 8.84978 1.76325 9.60384 1.75391L10.6866 1.73926H134.009L135.105 1.7545C135.852 1.76338 136.597 1.8286 137.335 1.94961C138.032 2.06803 138.708 2.2896 139.34 2.60703C140.585 3.24884 141.599 4.26425 142.238 5.51094C142.55 6.13435 142.767 6.80147 142.88 7.48965C143.005 8.23845 143.074 8.99534 143.089 9.7543C143.092 10.0941 143.092 10.4592 143.092 10.8225C143.102 11.2725 143.102 11.7008 143.102 12.1326V37.247C143.102 37.683 143.102 38.1084 143.092 38.5373C143.092 38.9275 143.092 39.285 143.087 39.6529C143.073 40.3983 143.005 41.1417 142.882 41.8771C142.77 42.5744 142.552 43.2503 142.234 43.8811C141.918 44.496 141.507 45.0572 141.016 45.5439C140.525 46.0405 139.958 46.4548 139.336 46.7709C138.706 47.0901 138.031 47.3125 137.335 47.4307C136.593 47.5518 135.843 47.6173 135.092 47.6264C134.74 47.6346 134.372 47.6393 134.015 47.6393L132.714 47.6417L10.686 47.6393Z" fill="white"/>
<path d="M30.5484 24.5583C30.5619 23.5167 30.8385 22.4955 31.3527 21.5896C31.8668 20.6837 32.6018 19.9225 33.4891 19.377C32.9254 18.5719 32.1818 17.9094 31.3172 17.442C30.4526 16.9746 29.491 16.7152 28.5087 16.6845C26.4132 16.4645 24.3817 17.9384 23.3139 17.9384C22.2254 17.9384 20.5813 16.7063 18.8109 16.7427C17.6658 16.7797 16.5497 17.1127 15.5716 17.7093C14.5934 18.3059 13.7864 19.1456 13.2293 20.1468C10.8159 24.3252 12.6161 30.4661 14.9279 33.8436C16.0845 35.4975 17.4363 37.3449 19.2051 37.2794C20.936 37.2076 21.5825 36.1756 23.6718 36.1756C25.7417 36.1756 26.3482 37.2794 28.1529 37.2377C30.0102 37.2076 31.1804 35.5765 32.2965 33.907C33.1276 32.7285 33.7671 31.4261 34.1913 30.0479C33.1122 29.5915 32.1914 28.8276 31.5436 27.8514C30.8958 26.8752 30.5497 25.7298 30.5484 24.5583Z" fill="black"/>
<path d="M27.1397 14.4623C28.1524 13.2466 28.6513 11.6841 28.5305 10.1064C26.9833 10.2689 25.5542 11.0084 24.5278 12.1774C24.026 12.7485 23.6416 13.413 23.3967 14.1327C23.1519 14.8524 23.0512 15.6134 23.1006 16.372C23.8744 16.38 24.64 16.2123 25.3397 15.8815C26.0393 15.5507 26.6547 15.0654 27.1397 14.4623Z" fill="black"/>
<path d="M51.3145 33.2572H45.6344L44.2704 37.2849H41.8645L47.2446 22.3833H49.7442L55.1243 37.2849H52.6774L51.3145 33.2572ZM46.2227 31.3986H50.7251L48.5056 24.8618H48.4434L46.2227 31.3986Z" fill="black"/>
<path d="M66.7435 31.8532C66.7435 35.2294 64.9365 37.3985 62.2096 37.3985C61.5188 37.4346 60.8318 37.2755 60.2272 36.9393C59.6227 36.6032 59.125 36.1036 58.7912 35.4977H58.7396V40.8789H56.5095V26.4204H58.6681V28.2274H58.7091C59.0583 27.6244 59.5644 27.1274 60.1735 26.7892C60.7827 26.451 61.4721 26.2842 62.1685 26.3067C64.926 26.3067 66.7435 28.4864 66.7435 31.8532ZM64.4514 31.8532C64.4514 29.6536 63.3146 28.2075 61.5803 28.2075C59.8764 28.2075 58.7303 29.684 58.7303 31.8532C58.7303 34.0422 59.8764 35.5083 61.5803 35.5083C63.3146 35.5083 64.4513 34.0727 64.4513 31.8532H64.4514Z" fill="black"/>
<path d="M78.7019 31.8532C78.7019 35.2294 76.8943 37.3985 74.1673 37.3985C73.4765 37.4346 72.7895 37.2755 72.185 36.9393C71.5804 36.6032 71.0828 36.1036 70.749 35.4977H70.6974V40.8789H68.4673V26.4204H70.6259V28.2274H70.6669C71.016 27.6244 71.5221 27.1274 72.1313 26.7892C72.7404 26.451 73.4299 26.2842 74.1263 26.3067C76.8837 26.3067 78.7019 28.4864 78.7019 31.8532ZM76.4091 31.8532C76.4091 29.6536 75.2724 28.2075 73.538 28.2075C71.8341 28.2075 70.688 29.684 70.688 31.8532C70.688 34.0422 71.8341 35.5083 73.538 35.5083C75.2724 35.5083 76.4091 34.0727 76.4091 31.8532Z" fill="black"/>
<path d="M86.6037 33.1329C86.7689 34.6106 88.2045 35.5809 90.1662 35.5809C92.0459 35.5809 93.3982 34.6106 93.3982 33.2781C93.3982 32.1215 92.5826 31.4289 90.6513 30.9543L88.7201 30.4891C85.9838 29.8281 84.7134 28.5484 84.7134 26.4719C84.7134 23.9008 86.9541 22.1348 90.1345 22.1348C93.2845 22.1348 95.4431 23.9008 95.5158 26.4719H93.2646C93.1298 24.9848 91.9005 24.0871 90.1041 24.0871C88.3076 24.0871 87.0783 24.9953 87.0783 26.3172C87.0783 27.3707 87.8634 27.9906 89.7841 28.4652L91.4259 28.8683C94.4833 29.5914 95.7525 30.8195 95.7525 32.9992C95.7525 35.7871 93.533 37.5332 90.0009 37.5332C86.6962 37.5332 84.4649 35.8281 84.3208 33.1328L86.6037 33.1329Z" fill="black"/>
<path d="M100.568 23.8496V26.4207H102.634V28.1867H100.568V34.1762C100.568 35.1066 100.982 35.5402 101.89 35.5402C102.135 35.536 102.38 35.5187 102.623 35.4886V37.2441C102.215 37.3204 101.8 37.355 101.385 37.3472C99.1851 37.3472 98.3272 36.5211 98.3272 34.414V28.1867H96.7476V26.4207H98.3272V23.8496H100.568Z" fill="black"/>
<path d="M103.829 31.8535C103.829 28.4352 105.842 26.2871 108.982 26.2871C112.132 26.2871 114.136 28.4351 114.136 31.8535C114.136 35.2813 112.142 37.4199 108.982 37.4199C105.822 37.4199 103.829 35.2812 103.829 31.8535ZM111.863 31.8535C111.863 29.5086 110.789 28.1246 108.982 28.1246C107.175 28.1246 106.1 29.5191 106.1 31.8535C106.1 34.2078 107.175 35.5813 108.982 35.5813C110.789 35.5813 111.863 34.2078 111.863 31.8535H111.863Z" fill="black"/>
<path d="M115.974 26.4203H118.101V28.2695H118.153C118.297 27.6919 118.635 27.1815 119.111 26.8241C119.587 26.4666 120.171 26.2839 120.766 26.3066C121.023 26.3057 121.279 26.3336 121.53 26.3898V28.4757C121.206 28.3766 120.867 28.3311 120.528 28.341C120.204 28.3278 119.881 28.3849 119.581 28.5084C119.282 28.6319 119.012 28.8187 118.791 29.0562C118.571 29.2937 118.404 29.5761 118.303 29.8841C118.201 30.1921 118.168 30.5184 118.204 30.8406V37.2847H115.974L115.974 26.4203Z" fill="black"/>
<path d="M131.812 34.0941C131.512 36.0664 129.592 37.4199 127.134 37.4199C123.974 37.4199 122.012 35.3023 122.012 31.9051C122.012 28.4973 123.984 26.2871 127.04 26.2871C130.046 26.2871 131.937 28.3519 131.937 31.6461V32.4102H124.263V32.5449C124.228 32.9448 124.278 33.3476 124.41 33.7266C124.542 34.1056 124.754 34.4521 125.03 34.7432C125.306 35.0342 125.642 35.2631 126.013 35.4147C126.385 35.5663 126.785 35.637 127.186 35.6223C127.713 35.6716 128.242 35.5496 128.694 35.2743C129.146 34.9989 129.497 34.585 129.695 34.0941L131.812 34.0941ZM124.274 30.8516H129.705C129.725 30.492 129.671 30.1323 129.545 29.7948C129.42 29.4574 129.226 29.1495 128.975 28.8906C128.725 28.6317 128.424 28.4273 128.091 28.2902C127.758 28.1532 127.4 28.0864 127.04 28.0941C126.677 28.092 126.317 28.1617 125.981 28.2994C125.645 28.4371 125.34 28.64 125.083 28.8964C124.825 29.1527 124.621 29.4575 124.483 29.7931C124.344 30.1287 124.273 30.4884 124.274 30.8516V30.8516Z" fill="black"/>
<path d="M45.9437 11.1668C46.4113 11.1333 46.8804 11.2039 47.3174 11.3736C47.7543 11.5433 48.1481 11.8079 48.4704 12.1483C48.7927 12.4886 49.0355 12.8963 49.1812 13.3418C49.3269 13.7873 49.3718 14.2596 49.3129 14.7246C49.3129 17.0121 48.0766 18.327 45.9437 18.327H43.3574V11.1668H45.9437ZM44.4695 17.3144H45.8195C46.1536 17.3344 46.4879 17.2796 46.7982 17.1541C47.1084 17.0285 47.3868 16.8354 47.613 16.5887C47.8392 16.342 48.0075 16.048 48.1057 15.7281C48.204 15.4081 48.2296 15.0703 48.1808 14.7392C48.2261 14.4094 48.1978 14.0737 48.0981 13.7561C47.9984 13.4385 47.8296 13.1469 47.6039 12.9022C47.3782 12.6575 47.1012 12.4657 46.7927 12.3406C46.4842 12.2155 46.1519 12.1602 45.8195 12.1787H44.4695V17.3144Z" fill="black"/>
<path d="M50.5692 15.6235C50.5352 15.2684 50.5758 14.9101 50.6884 14.5716C50.8011 14.2331 50.9832 13.9219 51.2231 13.6579C51.463 13.394 51.7555 13.183 52.0817 13.0387C52.4079 12.8944 52.7607 12.8198 53.1174 12.8198C53.4741 12.8198 53.8269 12.8944 54.1531 13.0387C54.4794 13.183 54.7718 13.394 55.0118 13.6579C55.2517 13.9219 55.4338 14.2331 55.5464 14.5716C55.659 14.9101 55.6996 15.2684 55.6657 15.6235C55.7003 15.9789 55.6601 16.3377 55.5478 16.6768C55.4355 17.0158 55.2535 17.3276 55.0135 17.5921C54.7735 17.8566 54.4809 18.0679 54.1543 18.2126C53.8278 18.3572 53.4746 18.4319 53.1174 18.4319C52.7603 18.4319 52.4071 18.3572 52.0805 18.2126C51.754 18.0679 51.4613 17.8566 51.2213 17.5921C50.9813 17.3276 50.7993 17.0158 50.687 16.6768C50.5747 16.3377 50.5346 15.9789 50.5692 15.6235ZM54.5688 15.6235C54.5688 14.4522 54.0426 13.7672 53.1192 13.7672C52.1922 13.7672 51.6708 14.4522 51.6708 15.6235C51.6708 16.8042 52.1923 17.4838 53.1192 17.4838C54.0426 17.4838 54.5688 16.7995 54.5688 15.6235H54.5688Z" fill="black"/>
<path d="M62.4402 18.3269H61.334L60.2172 14.3472H60.1328L59.0207 18.3269H57.925L56.4355 12.9233H57.5172L58.4852 17.0465H58.5649L59.6758 12.9233H60.6988L61.8098 17.0465H61.8942L62.8574 12.9233H63.9238L62.4402 18.3269Z" fill="black"/>
<path d="M65.1765 12.9236H66.2031V13.782H66.2828C66.418 13.4737 66.646 13.2152 66.935 13.0427C67.2241 12.8701 67.5597 12.792 67.8953 12.8193C68.1582 12.7995 68.4222 12.8392 68.6677 12.9353C68.9132 13.0314 69.134 13.1815 69.3136 13.3745C69.4932 13.5675 69.6271 13.7985 69.7053 14.0503C69.7836 14.3021 69.8042 14.5682 69.7656 14.829V18.327H68.6992V15.0968C68.6992 14.2285 68.3218 13.7966 67.5332 13.7966C67.3547 13.7883 67.1765 13.8187 67.0108 13.8857C66.8451 13.9527 66.6959 14.0547 66.5733 14.1848C66.4508 14.3148 66.3578 14.4699 66.3008 14.6392C66.2437 14.8086 66.224 14.9883 66.2429 15.166V18.3271H65.1765L65.1765 12.9236Z" fill="black"/>
<path d="M71.4648 10.814H72.5313V18.3268H71.4648V10.814Z" fill="black"/>
<path d="M74.0137 15.6221C73.9798 15.267 74.0204 14.9087 74.1331 14.5702C74.2457 14.2317 74.4278 13.9205 74.6678 13.6565C74.9078 13.3925 75.2002 13.1816 75.5265 13.0372C75.8527 12.8929 76.2055 12.8184 76.5623 12.8184C76.919 12.8184 77.2718 12.8929 77.5981 13.0372C77.9243 13.1816 78.2168 13.3925 78.4567 13.6565C78.6967 13.9205 78.8788 14.2317 78.9914 14.5702C79.1041 14.9087 79.1447 15.267 79.1108 15.6221C79.1453 15.9776 79.1052 16.3364 78.9928 16.6754C78.8805 17.0144 78.6985 17.3262 78.4584 17.5907C78.2184 17.8552 77.9257 18.0665 77.5992 18.2112C77.2726 18.3558 76.9194 18.4305 76.5623 18.4305C76.2051 18.4305 75.8519 18.3558 75.5253 18.2112C75.1988 18.0665 74.9061 17.8552 74.6661 17.5907C74.4261 17.3262 74.244 17.0144 74.1317 16.6754C74.0193 16.3364 73.9792 15.9776 74.0137 15.6221ZM78.0133 15.6221C78.0133 14.4508 77.4871 13.7659 76.5637 13.7659C75.6368 13.7659 75.1153 14.4508 75.1153 15.6221C75.1153 16.8028 75.6368 17.4825 76.5637 17.4825C77.4872 17.4825 78.0133 16.7981 78.0133 15.6221H78.0133Z" fill="black"/>
<path d="M80.2334 16.7995C80.2334 15.8268 80.9576 15.2661 82.2432 15.1864L83.7068 15.102V14.6356C83.7068 14.0649 83.3295 13.7427 82.6006 13.7427C82.0053 13.7427 81.5928 13.9612 81.4744 14.3433H80.442C80.551 13.4151 81.424 12.8198 82.6498 12.8198C84.0045 12.8198 84.7685 13.4942 84.7685 14.6356V18.3276H83.742V17.5683H83.6576C83.4864 17.8406 83.2459 18.0627 82.9607 18.2118C82.6756 18.3608 82.356 18.4315 82.0346 18.4167C81.8077 18.4403 81.5785 18.4161 81.3615 18.3456C81.1446 18.2752 80.9449 18.1601 80.7752 18.0077C80.6055 17.8553 80.4696 17.6691 80.3763 17.461C80.283 17.2529 80.2343 17.0276 80.2334 16.7995ZM83.7068 16.3378V15.886L82.3873 15.9704C81.6432 16.0202 81.3057 16.2733 81.3057 16.7497C81.3057 17.236 81.7275 17.519 82.3077 17.519C82.4776 17.5362 82.6493 17.5191 82.8125 17.4686C82.9757 17.418 83.1271 17.3352 83.2577 17.225C83.3882 17.1148 83.4952 16.9795 83.5724 16.827C83.6496 16.6746 83.6953 16.5082 83.7068 16.3378Z" fill="black"/>
<path d="M86.1702 15.6228C86.1702 13.9154 87.0479 12.8337 88.4131 12.8337C88.7508 12.8181 89.086 12.899 89.3794 13.0669C89.6728 13.2348 89.9124 13.4827 90.0702 13.7817H90.1499V10.814H91.2162V18.3269H90.1944V17.4731H90.11C89.9401 17.7701 89.6921 18.015 89.393 18.1811C89.0939 18.3473 88.7551 18.4285 88.4131 18.4159C87.0385 18.416 86.1702 17.3343 86.1702 15.6228ZM87.2718 15.6228C87.2718 16.7689 87.812 17.4585 88.7155 17.4585C89.6143 17.4585 90.1698 16.7589 90.1698 15.6275C90.1698 14.5013 89.6085 13.7917 88.7155 13.7917C87.8178 13.7917 87.2717 14.486 87.2717 15.6228H87.2718Z" fill="black"/>
<path d="M95.6283 15.6235C95.5943 15.2684 95.6349 14.9101 95.7475 14.5716C95.8601 14.2331 96.0422 13.9219 96.2822 13.6579C96.5221 13.394 96.8146 13.183 97.1408 13.0387C97.467 12.8944 97.8198 12.8198 98.1765 12.8198C98.5332 12.8198 98.886 12.8944 99.2122 13.0387C99.5385 13.183 99.8309 13.394 100.071 13.6579C100.311 13.9219 100.493 14.2331 100.605 14.5716C100.718 14.9101 100.759 15.2684 100.725 15.6235C100.759 15.9789 100.719 16.3377 100.607 16.6768C100.495 17.0158 100.313 17.3276 100.073 17.5921C99.8326 17.8566 99.5399 18.0679 99.2134 18.2126C98.8869 18.3572 98.5337 18.4319 98.1765 18.4319C97.8194 18.4319 97.4662 18.3572 97.1396 18.2126C96.8131 18.0679 96.5204 17.8566 96.2804 17.5921C96.0404 17.3276 95.8584 17.0158 95.7461 16.6768C95.6338 16.3377 95.5937 15.9789 95.6283 15.6235ZM99.6279 15.6235C99.6279 14.4522 99.1017 13.7672 98.1783 13.7672C97.2513 13.7672 96.7299 14.4522 96.7299 15.6235C96.7299 16.8042 97.2514 17.4838 98.1783 17.4838C99.1017 17.4838 99.6279 16.7995 99.6279 15.6235Z" fill="black"/>
<path d="M102.156 12.9236H103.182V13.782H103.262C103.397 13.4737 103.625 13.2152 103.914 13.0427C104.203 12.8701 104.539 12.792 104.875 12.8193C105.137 12.7995 105.401 12.8392 105.647 12.9353C105.892 13.0314 106.113 13.1815 106.293 13.3745C106.472 13.5675 106.606 13.7985 106.685 14.0503C106.763 14.3021 106.783 14.5682 106.745 14.829V18.327H105.678V15.0968C105.678 14.2285 105.301 13.7966 104.512 13.7966C104.334 13.7883 104.156 13.8187 103.99 13.8857C103.824 13.9527 103.675 14.0547 103.553 14.1848C103.43 14.3148 103.337 14.4699 103.28 14.6392C103.223 14.8086 103.203 14.9883 103.222 15.166V18.3271H102.156V12.9236Z" fill="black"/>
<path d="M112.771 11.5781V12.948H113.941V13.8463H112.771V16.6248C112.771 17.1908 113.004 17.4387 113.535 17.4387C113.671 17.4382 113.806 17.43 113.941 17.4141V18.3023C113.75 18.3366 113.556 18.3548 113.361 18.3568C112.175 18.3568 111.703 17.9396 111.703 16.8978V13.8462H110.845V12.948H111.703V11.5781H112.771Z" fill="black"/>
<path d="M115.398 10.814H116.455V13.7917H116.539C116.681 13.4805 116.915 13.2206 117.21 13.0474C117.505 12.8742 117.846 12.7961 118.187 12.8237C118.448 12.8095 118.71 12.8532 118.953 12.9516C119.195 13.0501 119.413 13.2009 119.591 13.3933C119.769 13.5857 119.902 13.815 119.981 14.0647C120.06 14.3145 120.083 14.5786 120.048 14.8382V18.3269H118.98V15.1013C118.98 14.2382 118.578 13.8011 117.825 13.8011C117.642 13.786 117.457 13.8112 117.285 13.8749C117.112 13.9386 116.956 14.0392 116.826 14.1696C116.697 14.3001 116.597 14.4573 116.535 14.6303C116.472 14.8033 116.448 14.9878 116.464 15.171V18.3268H115.398L115.398 10.814Z" fill="black"/>
<path d="M126.266 16.8673C126.121 17.3611 125.807 17.7883 125.379 18.0741C124.951 18.3599 124.436 18.486 123.924 18.4305C123.568 18.4399 123.215 18.3718 122.888 18.2307C122.561 18.0897 122.268 17.8792 122.031 17.6138C121.793 17.3485 121.616 17.0346 121.512 16.694C121.408 16.3534 121.38 15.9943 121.428 15.6415C121.381 15.2876 121.41 14.9277 121.514 14.5861C121.618 14.2445 121.794 13.9292 122.03 13.6615C122.266 13.3938 122.557 13.18 122.883 13.0346C123.209 12.8891 123.563 12.8154 123.92 12.8184C125.423 12.8184 126.33 13.8456 126.33 15.5424V15.9146H122.515V15.9743C122.498 16.1726 122.523 16.3722 122.588 16.5603C122.653 16.7484 122.756 16.9209 122.892 17.0666C123.027 17.2124 123.192 17.3282 123.375 17.4067C123.557 17.4851 123.755 17.5245 123.954 17.5223C124.209 17.5529 124.467 17.507 124.696 17.3904C124.925 17.2737 125.114 17.0916 125.239 16.8672L126.266 16.8673ZM122.515 15.1259H125.244C125.257 14.9445 125.233 14.7624 125.172 14.5911C125.11 14.4198 125.014 14.2633 124.889 14.1314C124.764 13.9996 124.612 13.8954 124.444 13.8256C124.276 13.7558 124.096 13.7219 123.914 13.7261C123.729 13.7238 123.546 13.7584 123.376 13.8279C123.205 13.8974 123.049 14.0005 122.919 14.1309C122.789 14.2614 122.686 14.4166 122.616 14.5875C122.547 14.7584 122.512 14.9414 122.515 15.1259H122.515Z" fill="black"/>
</g>
<defs>
<clipPath id="clip0">
<rect width="143.597" height="48" fill="white" transform="translate(0.552246 0.689453)"/>
</clipPath>
</defs>
</svg>
