<svg width="162" height="49" viewBox="0 0 162 49" fill="none" xmlns="http://www.w3.org/2000/svg">
<g clip-path="url(#clip0)">
<path d="M155.343 48.5703H6.08953C2.80595 48.5703 0.119385 45.8837 0.119385 42.6002V6.77927C0.119385 3.49569 2.80595 0.809116 6.08953 0.809116H155.343C158.627 0.809116 161.313 3.49569 161.313 6.77927V42.6002C161.313 45.8837 158.627 48.5703 155.343 48.5703Z" fill="white"/>
<path d="M155.343 0.809116H6.08953C2.80595 0.809116 0.119385 3.49569 0.119385 6.77927V42.6002C0.119385 45.8837 2.80595 48.5703 6.08953 48.5703H155.343C158.627 48.5703 161.313 45.8837 161.313 42.6002V6.77927C161.313 3.49569 158.627 0.809116 155.343 0.809116ZM155.343 1.76434C158.109 1.76434 160.358 4.01437 160.358 6.77927V42.6002C160.358 45.3655 158.109 47.6156 155.343 47.6156H6.08953C3.32464 47.6156 1.07461 45.3655 1.07461 42.6002V6.77927C1.07461 4.01437 3.32464 1.76434 6.08953 1.76434H155.343Z" fill="black"/>
<path d="M56.7383 13.0397C56.7383 14.0401 56.4421 14.8368 55.8488 15.431C55.1749 16.1377 54.2965 16.4912 53.2168 16.4912C52.1827 16.4912 51.3036 16.133 50.5806 15.4156C49.8563 14.6987 49.4949 13.8098 49.4949 12.7491C49.4949 11.688 49.8563 10.7995 50.5806 10.0821C51.3036 9.36524 52.1827 9.00655 53.2168 9.00655C53.7299 9.00655 54.2211 9.10685 54.6875 9.30697C55.1539 9.50757 55.5279 9.77384 55.8078 10.1073L55.1781 10.7374C54.7038 10.1707 54.0508 9.88763 53.2168 9.88763C52.4626 9.88763 51.8106 10.1526 51.2602 10.6829C50.7098 11.2137 50.4347 11.9021 50.4347 12.7491C50.4347 13.5962 50.7098 14.2845 51.2602 14.8154C51.8106 15.3457 52.4626 15.6106 53.2168 15.6106C54.0168 15.6106 54.6838 15.3442 55.2177 14.8107C55.5644 14.4632 55.7648 13.98 55.8184 13.3596H53.2168V12.4991H56.6884C56.722 12.6862 56.7383 12.8658 56.7383 13.0397Z" fill="black"/>
<path d="M56.7384 13.04H56.619C56.618 14.0175 56.3325 14.7768 55.7644 15.3468L55.7631 15.3478L55.7626 15.3487C55.1101 16.031 54.2714 16.3706 53.2168 16.372C52.2104 16.3706 51.368 16.0273 50.6646 15.3314C49.9627 14.6341 49.6156 13.7829 49.6143 12.7493C49.6156 11.7153 49.9627 10.8646 50.6646 10.1677C51.368 9.47138 52.2104 9.12762 53.2168 9.12618C53.7145 9.12618 54.1884 9.22326 54.6403 9.41681C55.0927 9.61179 55.4501 9.86732 55.7164 10.1846L55.8079 10.1076L55.7234 10.0231L55.0937 10.6537L55.1781 10.7376L55.2701 10.6612C54.7737 10.0665 54.077 9.76666 53.2168 9.76845C52.4347 9.7675 51.7467 10.0469 51.1776 10.5973C50.6031 11.1496 50.3144 11.8766 50.3153 12.7493C50.3144 13.6221 50.6031 14.3491 51.1776 14.9013C51.7467 15.4518 52.4347 15.7312 53.2168 15.7302C54.0433 15.7317 54.7477 15.4513 55.3022 14.8954C55.6726 14.524 55.8825 14.0096 55.9375 13.3701L55.9486 13.2405H53.3362V12.6187H56.6885V12.4993L56.5708 12.5203C56.6036 12.7013 56.619 12.8734 56.619 13.04H56.7384H56.8578C56.8578 12.8585 56.8409 12.672 56.8059 12.4779L56.7883 12.3799H53.0974V13.3599V13.4793H55.8185V13.3599L55.6996 13.3496C55.6469 13.9504 55.4556 14.4028 55.1333 14.7265C54.6203 15.2377 53.9907 15.49 53.2168 15.4914C52.4906 15.4905 51.8745 15.2405 51.3433 14.7298C50.8172 14.2209 50.5554 13.5712 50.5541 12.7493C50.5554 11.9275 50.8172 11.2778 51.3433 10.7689C51.8745 10.2582 52.4906 10.0082 53.2168 10.0073C54.0242 10.0092 54.6339 10.2759 55.0868 10.8147L55.1707 10.9145L55.8923 10.192L55.9696 10.1146L55.8992 10.031C55.6058 9.68129 55.215 9.40368 54.7345 9.19759C54.2532 8.9909 53.7453 8.88738 53.2168 8.88738C52.1553 8.88642 51.2393 9.25956 50.4962 9.99794C49.7504 10.7349 49.3745 11.6612 49.3755 12.7493C49.3745 13.837 49.7504 14.7638 50.4967 15.5012C51.2392 16.2391 52.1553 16.6118 53.2168 16.6108C54.3222 16.6118 55.2393 16.2446 55.9351 15.5138L55.8488 15.4313L55.9332 15.5157C56.5517 14.8976 56.8586 14.0628 56.8578 13.04H56.7384Z" fill="black"/>
<path d="M62.2419 10.047H58.9793V12.3185H61.9215V13.1794H58.9793V15.4509H62.2419V16.3311H58.0596V9.16687H62.2419V10.047Z" fill="black"/>
<path d="M62.2419 10.0472V9.92782H58.86V12.4381H61.8022V13.0599L58.86 13.0602V15.5706H62.1225V16.2119H58.179V9.28651H62.1225V10.0472H62.2419V9.92782V10.0472H62.3613V9.1671V9.0477H57.9402V16.4507H62.3613V15.4512V15.3318H59.0988V13.299H62.041V12.3187V12.1993H59.0988V10.1666H62.3613V10.0472H62.2419Z" fill="black"/>
<path d="M66.1241 16.3311H65.2029V10.047H63.2019V9.16687H68.125V10.047H66.1241V16.3311Z" fill="black"/>
<path d="M66.1241 16.3313V16.2119H65.3223V9.92782H63.3213V9.28651H68.0056V9.92782H66.0047V16.3313H66.1241V16.2119V16.3313H66.2435V10.1666H68.2444V9.1671V9.0477H63.0825V10.0472V10.1666H65.0835V16.4507H66.1241H66.2435V16.3313H66.1241Z" fill="black"/>
<path d="M71.687 16.3311V9.16687H72.6072V16.3311H71.687Z" fill="black"/>
<path d="M71.687 16.3313H71.8064V9.28651H72.4879V16.2119H71.687V16.3313H71.8064H71.687V16.4507H72.6073H72.7267V9.0477H71.687H71.5676V16.4507H71.687V16.3313Z" fill="black"/>
<path d="M76.6908 16.3311H75.7696V10.047H73.7688V9.16687H78.6918V10.047H76.6908V16.3311Z" fill="black"/>
<path d="M76.6908 16.3313V16.2119H75.8891V9.92782H73.8882V9.28651H78.5724V9.92782H76.5714V16.3313H76.6908V16.2119V16.3313H76.8102V10.1666H78.8112V9.1671V9.0477H73.6494V10.0472V10.1666H75.6502V16.4507H76.6908H76.8102V16.3313H76.6908Z" fill="black"/>
<path d="M83.4379 14.8056C83.9682 15.3424 84.617 15.6106 85.3843 15.6106C86.1516 15.6106 86.8008 15.3424 87.3302 14.8056C87.861 14.2688 88.1269 13.5826 88.1269 12.7491C88.1269 11.9157 87.861 11.2295 87.3302 10.6926C86.8008 10.1558 86.1516 9.88763 85.3843 9.88763C84.617 9.88763 83.9682 10.1558 83.4379 10.6926C82.9085 11.2295 82.6427 11.9157 82.6427 12.7491C82.6427 13.5826 82.9085 14.2688 83.4379 14.8056ZM88.0112 15.4054C87.3068 16.1297 86.4309 16.4912 85.3843 16.4912C84.3367 16.4912 83.4612 16.1297 82.7584 15.4054C82.0536 14.6819 81.7029 13.7963 81.7029 12.7491C81.7029 11.702 82.0536 10.8162 82.7584 10.0929C83.4612 9.36846 84.3367 9.00655 85.3843 9.00655C86.4254 9.00655 87.2989 9.37037 88.0065 10.0975C88.7131 10.8247 89.0667 11.7085 89.0667 12.7491C89.0667 13.7963 88.714 14.6819 88.0112 15.4054Z" fill="black"/>
<path d="M83.438 14.8058L83.353 14.8898C83.903 15.4481 84.5891 15.7317 85.3843 15.7302C86.1791 15.7317 86.8661 15.4481 87.4151 14.8898C87.9687 14.331 88.2471 13.608 88.2463 12.7493C88.2471 11.8907 87.9687 11.1677 87.4151 10.6089C86.8661 10.0506 86.1791 9.76702 85.3843 9.76845C84.5891 9.76702 83.903 10.0506 83.353 10.6089C82.8008 11.1677 82.5219 11.8907 82.5233 12.7493C82.5219 13.608 82.8008 14.331 83.353 14.8898L83.438 14.8058L83.5228 14.7219C83.0163 14.2064 82.7631 13.5581 82.7621 12.7493C82.7631 11.9406 83.0163 11.2923 83.5228 10.7768C84.034 10.2615 84.6445 10.0087 85.3843 10.0073C86.1236 10.0087 86.7355 10.2615 87.2454 10.7768C87.7528 11.2923 88.0061 11.9406 88.007 12.7493C88.0061 13.5581 87.7528 14.2064 87.2454 14.7219C86.7355 15.2372 86.1236 15.49 85.3843 15.4914C84.6445 15.49 84.034 15.2372 83.5228 14.7219L83.438 14.8058ZM88.0112 15.4056L87.9258 15.3226C87.2412 16.0241 86.4039 16.3706 85.3843 16.372C84.3643 16.3706 83.527 16.0241 82.8437 15.3226L82.8405 15.3189L82.8437 15.3226C82.1604 14.6187 81.8233 13.7699 81.8223 12.7493C81.8233 11.7288 82.1604 10.88 82.8437 10.1761C83.527 9.4746 84.3643 9.12762 85.3843 9.12618C86.3974 9.12762 87.2327 9.47603 87.9212 10.1812C88.6068 10.8883 88.9459 11.7359 88.9473 12.7493C88.9459 13.7699 88.6078 14.6187 87.9258 15.3226L88.0112 15.4056L88.0971 15.4886C88.8209 14.7452 89.187 13.823 89.1861 12.7493C89.187 11.6818 88.8195 10.7615 88.0923 10.0148C87.3648 9.26517 86.4534 8.88606 85.3843 8.88738C84.3097 8.88606 83.3956 9.26337 82.6726 10.0101V10.0096C81.9473 10.7535 81.5825 11.6757 81.5835 12.7493C81.5825 13.823 81.9473 14.7452 82.6726 15.489L82.6758 15.4924L82.6726 15.4886C83.3956 16.2353 84.3097 16.6118 85.3843 16.6108C86.4585 16.6118 87.3726 16.2353 88.0971 15.4886L88.0112 15.4056Z" fill="black"/>
<path d="M90.3586 16.3311V9.16687H91.479L94.9608 14.7401H95.0004L94.9608 13.3595V9.16687H95.882V16.3311H94.9212L91.2784 10.4877H91.2388L91.2784 11.8688V16.3311H90.3586Z" fill="black"/>
<path d="M90.3587 16.3313H90.4781V9.28651H91.4127L94.8945 14.8598H95.0004H95.1231L95.0802 13.3579V9.28651H95.7626V16.2119H94.9874L91.3447 10.3685H91.2388H91.1161L91.159 11.871V16.2119H90.3587V16.3313H90.4781H90.3587V16.4507H91.2784H91.3978V11.8672L91.3582 10.4847L91.2388 10.4879V10.6073H91.2784V10.4879L91.1772 10.5515L94.8549 16.4507H95.882H96.0014V9.0477H94.9608H94.8414V13.3611L94.881 14.7436L95.0004 14.7404V14.621H94.9608V14.7404L95.062 14.677L91.5452 9.0477H90.3587H90.2393V16.4507H90.3587V16.3313Z" fill="black"/>
<path d="M127.804 36.63H130.032V21.7032H127.804V36.63ZM147.872 27.0801L145.318 33.5516H145.242L142.591 27.0801H140.191L144.166 36.1252L141.9 41.1565H144.224L150.35 27.0801H147.872ZM135.237 34.9346C134.506 34.9346 133.489 34.5698 133.489 33.6669C133.489 32.5147 134.757 32.0731 135.851 32.0731C136.831 32.0731 137.291 32.2843 137.887 32.5727C137.713 33.9551 136.523 34.9346 135.237 34.9346ZM135.506 26.7535C133.893 26.7535 132.222 27.4644 131.531 29.039L133.508 29.8646C133.931 29.039 134.718 28.7699 135.544 28.7699C136.696 28.7699 137.867 29.4616 137.887 30.6906V30.8441C137.483 30.6136 136.62 30.2681 135.563 30.2681C133.432 30.2681 131.261 31.4392 131.261 33.6285C131.261 35.6258 133.009 36.9126 134.967 36.9126C136.466 36.9126 137.291 36.2405 137.81 35.4533H137.887V36.6052H140.037V30.8823C140.037 28.2326 138.06 26.7535 135.506 26.7535ZM121.736 28.8972H118.567V23.7807H121.736C123.402 23.7807 124.347 25.1598 124.347 26.3389C124.347 27.4956 123.402 28.8972 121.736 28.8972ZM121.679 21.7032H116.34V36.63H118.567V30.9747H121.679C124.148 30.9747 126.576 29.1869 126.576 26.3389C126.576 23.491 124.148 21.7032 121.679 21.7032ZM92.5671 34.9373C91.0279 34.9373 89.7392 33.6486 89.7392 31.8786C89.7392 30.0899 91.0279 28.7816 92.5671 28.7816C94.0868 28.7816 95.2794 30.0899 95.2794 31.8786C95.2794 33.6486 94.0868 34.9373 92.5671 34.9373ZM95.1255 27.9159H95.0485C94.5485 27.3198 93.5863 26.7811 92.3745 26.7811C89.8353 26.7811 87.5079 29.0124 87.5079 31.8786C87.5079 34.7256 89.8353 36.9378 92.3745 36.9378C93.5863 36.9378 94.5485 36.399 95.0485 35.7839H95.1255V36.5147C95.1255 38.4579 94.0868 39.4966 92.4132 39.4966C91.0475 39.4966 90.2011 38.5152 89.8544 37.6882L87.9119 38.4961C88.4697 39.8426 89.951 41.4971 92.4132 41.4971C95.0294 41.4971 97.2415 39.9578 97.2415 36.2069V27.089H95.1255V27.9159ZM98.7803 36.63H101.012V21.7027H98.7803V36.63ZM104.301 31.7055C104.243 29.7433 105.821 28.7433 106.956 28.7433C107.841 28.7433 108.591 29.1854 108.841 29.8208L104.301 31.7055ZM111.226 30.0129C110.804 28.8776 109.514 26.7811 106.879 26.7811C104.263 26.7811 102.089 28.8394 102.089 31.8595C102.089 34.7065 104.243 36.9378 107.129 36.9378C109.457 36.9378 110.804 35.5143 111.361 34.6873L109.63 33.5329C109.053 34.3795 108.264 34.9373 107.129 34.9373C105.994 34.9373 105.186 34.4178 104.666 33.3986L111.457 30.5898L111.226 30.0129ZM57.1269 28.3393V30.4937H62.2821C62.1282 31.7055 61.7243 32.5903 61.1086 33.206C60.3587 33.9564 59.1852 34.7834 57.1269 34.7834C53.9528 34.7834 51.4715 32.2251 51.4715 29.0511C51.4715 25.8771 53.9528 23.3184 57.1269 23.3184C58.839 23.3184 60.089 23.9919 61.0125 24.8575L62.5322 23.338C61.2434 22.1066 59.5312 21.1641 57.1269 21.1641C52.7793 21.1641 49.1245 24.7036 49.1245 29.0511C49.1245 33.3986 52.7793 36.9378 57.1269 36.9378C59.4739 36.9378 61.2434 36.1687 62.6283 34.7256C64.0518 33.3021 64.4944 31.3016 64.4944 29.686C64.4944 29.1854 64.4561 28.7242 64.3787 28.3393H57.1269ZM70.3554 34.9373C68.8162 34.9373 67.4888 33.6677 67.4888 31.8595C67.4888 30.032 68.8162 28.7816 70.3554 28.7816C71.8941 28.7816 73.2215 30.032 73.2215 31.8595C73.2215 33.6677 71.8941 34.9373 70.3554 34.9373ZM70.3554 26.7811C67.5466 26.7811 65.2574 28.9163 65.2574 31.8595C65.2574 34.7834 67.5466 36.9378 70.3554 36.9378C73.1637 36.9378 75.4529 34.7834 75.4529 31.8595C75.4529 28.9163 73.1637 26.7811 70.3554 26.7811ZM81.4757 34.9373C79.9371 34.9373 78.6095 33.6677 78.6095 31.8595C78.6095 30.032 79.9371 28.7816 81.4757 28.7816C83.0144 28.7816 84.3418 30.032 84.3418 31.8595C84.3418 33.6677 83.0144 34.9373 81.4757 34.9373ZM81.4757 26.7811C78.667 26.7811 76.3783 28.9163 76.3783 31.8595C76.3783 34.7834 78.667 36.9378 81.4757 36.9378C84.284 36.9378 86.5732 34.7834 86.5732 31.8595C86.5732 28.9163 84.284 26.7811 81.4757 26.7811Z" fill="black"/>
<path d="M12.6684 39.4829L12.5797 39.398C12.2322 39.0304 12.0271 38.4595 12.0271 37.7203V37.8943V11.4871C12.0271 11.4847 12.0271 11.4829 12.0271 11.481C12.0271 11.4833 12.0271 11.4852 12.0271 11.4876V11.662C12.0271 10.8615 12.2663 10.2586 12.667 9.897L27.4608 24.6904L12.6684 39.4829ZM12.0271 11.4796C12.0271 11.4138 12.0289 11.3499 12.0322 11.287C12.0289 11.3494 12.0271 11.4138 12.0271 11.4796ZM12.0322 11.2841C12.0322 11.2833 12.0322 11.2823 12.0326 11.2814C12.0322 11.2823 12.0322 11.2833 12.0322 11.2841ZM12.0326 11.2757C12.0326 11.2753 12.0326 11.2748 12.0326 11.2743C12.0326 11.2748 12.0326 11.2753 12.0326 11.2757Z" fill="url(#paint0_linear)"/>
<path d="M32.3912 29.7983L32.5037 29.7345L38.346 26.4149C38.903 26.0983 39.2742 25.7144 39.4594 25.3082C39.2747 25.7144 38.9033 26.0988 38.346 26.4154L32.5037 29.7349L32.3912 29.7983ZM32.3926 29.6234L27.4607 24.6906L32.3922 19.7587L38.346 23.1411C39.102 23.5708 39.5265 24.1244 39.5974 24.6902C39.5974 24.6906 39.5974 24.6916 39.5974 24.6924C39.5265 25.2568 39.102 25.811 38.346 26.2405L32.3926 29.6234Z" fill="url(#paint1_linear)"/>
<path d="M13.7229 40.0459C13.3097 40.0459 12.9491 39.9116 12.6679 39.6578L12.6684 39.6574C12.9495 39.9111 13.3106 40.0459 13.7239 40.0459C13.7597 40.0459 13.7961 40.0449 13.833 40.0432C13.7956 40.0449 13.7587 40.0459 13.7229 40.0459ZM13.7234 39.871C13.3101 39.8714 12.9495 39.7366 12.6684 39.4829V39.4826L27.4607 24.6901L32.3926 29.6229L15.0611 39.4704C14.5815 39.7423 14.1272 39.871 13.7234 39.871ZM12.6642 39.6546C12.638 39.6309 12.6124 39.6057 12.5872 39.5795L12.6642 39.6546Z" fill="url(#paint2_linear)"/>
<path d="M27.4608 24.6904L12.667 9.897C12.9482 9.64374 13.3083 9.50942 13.7211 9.50942C14.126 9.50942 14.5807 9.63861 15.0611 9.91097L32.3922 19.7585L27.4608 24.6904ZM32.5038 19.6471L15.0611 9.73664C14.5807 9.46416 14.126 9.33497 13.7211 9.33497C13.7192 9.33497 13.7179 9.33497 13.7159 9.33497C13.7183 9.33497 13.7201 9.33497 13.723 9.33497C14.1269 9.33497 14.5811 9.46368 15.0611 9.73616L32.5038 19.6471Z" fill="url(#paint3_linear)"/>
<path d="M13.833 40.0435C14.2084 40.022 14.624 39.8928 15.061 39.6451L32.3912 29.7981L15.061 39.6451C14.6244 39.8932 14.2084 40.022 13.833 40.0435ZM12.6678 39.6581L12.6641 39.6549C12.6654 39.6559 12.6669 39.6572 12.6678 39.6581ZM12.5871 39.5798L12.5796 39.5724V39.5719C12.5825 39.5747 12.5847 39.5774 12.5871 39.5798Z" fill="white"/>
<path d="M32.3914 29.7983L32.5038 29.7345L32.3914 29.7983Z" fill="url(#paint4_linear)"/>
<path d="M13.7238 40.0459C13.3106 40.0459 12.9495 39.9111 12.6683 39.6574L12.6678 39.6578C12.6669 39.6569 12.6654 39.6556 12.6641 39.6546L12.5871 39.5795C12.5847 39.5771 12.5825 39.5744 12.5796 39.5716L12.6683 39.4829C12.9495 39.7366 13.3101 39.8714 13.7234 39.871C14.1272 39.871 14.5815 39.7423 15.061 39.4704L32.3926 29.6229L32.5037 29.7339L32.3912 29.7978L15.061 39.6448C14.624 39.8925 14.2084 40.0217 13.833 40.0432C13.7961 40.0449 13.7597 40.0459 13.7238 40.0459Z" fill="url(#paint5_linear)"/>
<path d="M12.5797 39.5728C12.2322 39.2051 12.0271 38.6342 12.0271 37.895V37.8945C12.0271 38.6342 12.2322 39.2046 12.5797 39.5723V39.5728Z" fill="white"/>
<path d="M12.5797 39.5723C12.2322 39.2046 12.0271 38.6342 12.0271 37.8945V37.7206C12.0271 38.4598 12.2322 39.0307 12.5797 39.3983L12.6684 39.4832L12.5797 39.5723Z" fill="url(#paint6_linear)"/>
<path d="M12.5796 39.5723L12.6683 39.4832V39.4835L12.5796 39.5723Z" fill="url(#paint7_linear)"/>
<path d="M39.4595 25.3081C39.5513 25.1066 39.5975 24.8995 39.5975 24.6923C39.5975 24.692 39.5975 24.6915 39.5975 24.6915C39.5975 24.899 39.5513 25.1061 39.4595 25.3081Z" fill="white"/>
<path d="M32.5036 29.7344L32.3926 29.6233L38.3459 26.2404C39.102 25.8109 39.5264 25.2568 39.5974 24.6923C39.5974 24.8995 39.5511 25.1065 39.4593 25.3081C39.2741 25.7143 38.9029 26.0982 38.3459 26.4149L32.5036 29.7344Z" fill="url(#paint8_linear)"/>
<path d="M39.5974 24.6904V24.69C39.5969 24.0654 39.1795 23.4409 38.3459 22.967L32.5037 19.6474H32.5032L32.5037 19.6471L38.3459 22.9665C39.1804 23.4404 39.5983 24.0658 39.5974 24.6904Z" fill="#404040"/>
<path d="M39.5976 24.6899C39.5267 24.1242 39.1022 23.5705 38.3461 23.1409L32.3923 19.7585L32.5034 19.6474H32.5039L38.3461 22.967C39.1797 23.4409 39.5971 24.0653 39.5976 24.6899Z" fill="url(#paint9_linear)"/>
<path d="M12.0271 11.4814C12.0271 11.481 12.0271 11.4805 12.0271 11.48C12.0271 11.4805 12.0271 11.481 12.0271 11.4814ZM12.0322 11.2874C12.0322 11.2865 12.0322 11.2855 12.0322 11.2846C12.0322 11.2855 12.0322 11.2865 12.0322 11.2874ZM12.0326 11.2818C12.0326 11.2799 12.0326 11.2781 12.0326 11.2762C12.0326 11.2781 12.0326 11.2799 12.0326 11.2818ZM12.0326 11.2748C12.1017 10.0481 12.7687 9.3396 13.7122 9.33542C13.3032 9.33781 12.9469 9.47213 12.6679 9.72348V9.723L12.6646 9.72634C12.6352 9.75285 12.6073 9.78091 12.5797 9.8098C12.2663 10.1414 12.0685 10.6381 12.0326 11.2748Z" fill="#404040"/>
<path d="M12.0271 11.6621V11.4877C12.0271 11.4853 12.0271 11.4834 12.0271 11.4811C12.0271 11.4806 12.0271 11.4801 12.0271 11.4797C12.0271 11.4139 12.0289 11.3495 12.0322 11.2871C12.0322 11.2861 12.0322 11.2852 12.0322 11.2842C12.0322 11.2834 12.0322 11.2824 12.0326 11.2815C12.0326 11.2795 12.0326 11.2778 12.0326 11.2758C12.0326 11.2754 12.0326 11.2749 12.0326 11.2744C12.0685 10.6378 12.2663 10.141 12.5797 9.80945L12.667 9.89709C12.2663 10.2586 12.0271 10.8616 12.0271 11.6621ZM12.6646 9.72599L12.6679 9.72265C12.667 9.72408 12.6655 9.72503 12.6646 9.72599Z" fill="url(#paint10_linear)"/>
<path d="M32.3921 19.7588L15.061 9.91127C14.5805 9.63891 14.1259 9.50971 13.721 9.50971C13.3082 9.50971 12.9481 9.64404 12.6669 9.8973L12.5796 9.80965C12.6072 9.78076 12.6351 9.7527 12.6645 9.72619C12.6654 9.72523 12.6669 9.72428 12.6678 9.72333C12.9468 9.47198 13.3031 9.33765 13.7121 9.33527C13.7131 9.33527 13.7144 9.33527 13.7158 9.33527C13.7177 9.33527 13.7191 9.33527 13.721 9.33527C14.1259 9.33527 14.5805 9.46446 15.061 9.73694L32.5037 19.6474L32.5032 19.6477L32.3921 19.7588Z" fill="url(#paint11_linear)"/>
</g>
<defs>
<linearGradient id="paint0_linear" x1="26.149" y1="11.2085" x2="6.11021" y2="31.2473" gradientUnits="userSpaceOnUse">
<stop stop-color="#00A0FF"/>
<stop offset="0.00657445" stop-color="#00A1FF"/>
<stop offset="0.2601" stop-color="#00BEFF"/>
<stop offset="0.5122" stop-color="#00D2FF"/>
<stop offset="0.7604" stop-color="#00DFFF"/>
<stop offset="1" stop-color="#00E3FF"/>
</linearGradient>
<linearGradient id="paint1_linear" x1="40.5186" y1="24.6914" x2="11.6267" y2="24.6914" gradientUnits="userSpaceOnUse">
<stop stop-color="#FFE000"/>
<stop offset="0.4087" stop-color="#FFBD00"/>
<stop offset="0.7754" stop-color="#FFA500"/>
<stop offset="1" stop-color="#FF9C00"/>
</linearGradient>
<linearGradient id="paint2_linear" x1="29.7635" y1="27.4307" x2="2.58941" y2="54.6048" gradientUnits="userSpaceOnUse">
<stop stop-color="#FF3A44"/>
<stop offset="1" stop-color="#C31162"/>
</linearGradient>
<linearGradient id="paint3_linear" x1="8.8326" y1="1.01927" x2="20.9669" y2="13.1536" gradientUnits="userSpaceOnUse">
<stop stop-color="#32A071"/>
<stop offset="0.0685" stop-color="#2DA771"/>
<stop offset="0.4762" stop-color="#15CF74"/>
<stop offset="0.8009" stop-color="#06E775"/>
<stop offset="1" stop-color="#00F076"/>
</linearGradient>
<linearGradient id="paint4_linear" x1="40.5189" y1="24.6916" x2="11.6263" y2="24.6916" gradientUnits="userSpaceOnUse">
<stop stop-color="#CCB300"/>
<stop offset="0.4087" stop-color="#CC9700"/>
<stop offset="0.7754" stop-color="#CC8400"/>
<stop offset="1" stop-color="#CC7D00"/>
</linearGradient>
<linearGradient id="paint5_linear" x1="29.7635" y1="27.4307" x2="2.58938" y2="54.6048" gradientUnits="userSpaceOnUse">
<stop stop-color="#CC2E36"/>
<stop offset="1" stop-color="#9C0E4E"/>
</linearGradient>
<linearGradient id="paint6_linear" x1="26.149" y1="11.2088" x2="6.1102" y2="31.2476" gradientUnits="userSpaceOnUse">
<stop stop-color="#008DE0"/>
<stop offset="0.00657445" stop-color="#008DE0"/>
<stop offset="0.2601" stop-color="#00A7E0"/>
<stop offset="0.5122" stop-color="#00B8E0"/>
<stop offset="0.7604" stop-color="#00C4E0"/>
<stop offset="1" stop-color="#00C7E0"/>
</linearGradient>
<linearGradient id="paint7_linear" x1="29.7635" y1="27.4316" x2="2.58984" y2="54.6057" gradientUnits="userSpaceOnUse">
<stop stop-color="#E0333C"/>
<stop offset="1" stop-color="#AB0F56"/>
</linearGradient>
<linearGradient id="paint8_linear" x1="40.5186" y1="24.6913" x2="11.6266" y2="24.6913" gradientUnits="userSpaceOnUse">
<stop stop-color="#E0C500"/>
<stop offset="0.4087" stop-color="#E0A600"/>
<stop offset="0.7754" stop-color="#E09100"/>
<stop offset="1" stop-color="#E08900"/>
</linearGradient>
<linearGradient id="paint9_linear" x1="40.5188" y1="24.6911" x2="11.6268" y2="24.6911" gradientUnits="userSpaceOnUse">
<stop stop-color="#FFE840"/>
<stop offset="0.4087" stop-color="#FFCE40"/>
<stop offset="0.7754" stop-color="#FFBC40"/>
<stop offset="1" stop-color="#FFB540"/>
</linearGradient>
<linearGradient id="paint10_linear" x1="26.149" y1="11.2086" x2="6.11018" y2="31.2474" gradientUnits="userSpaceOnUse">
<stop stop-color="#40B8FF"/>
<stop offset="0.00657445" stop-color="#40B9FF"/>
<stop offset="0.2601" stop-color="#40CEFF"/>
<stop offset="0.5122" stop-color="#40DDFF"/>
<stop offset="0.7604" stop-color="#40E7FF"/>
<stop offset="1" stop-color="#40EAFF"/>
</linearGradient>
<linearGradient id="paint11_linear" x1="8.83249" y1="1.01956" x2="20.9668" y2="13.1539" gradientUnits="userSpaceOnUse">
<stop stop-color="#65B895"/>
<stop offset="0.0685" stop-color="#62BD95"/>
<stop offset="0.4762" stop-color="#50DB97"/>
<stop offset="0.8009" stop-color="#44ED98"/>
<stop offset="1" stop-color="#40F498"/>
</linearGradient>
<clipPath id="clip0">
<rect width="161.552" height="48" fill="white" transform="translate(0 0.689453)"/>
</clipPath>
</defs>
</svg>
